<?xml version="1.0" standalone="no"?>
<!DOCTYPE svg PUBLIC "-//W3C//DTD SVG 20010904//EN"
 "http://www.w3.org/TR/2001/REC-SVG-20010904/DTD/svg10.dtd">
<svg version="1.0" xmlns="http://www.w3.org/2000/svg"
 width="300.000000pt" height="300.000000pt" viewBox="0 0 300.000000 300.000000"
 preserveAspectRatio="xMidYMid meet">
<metadata>
Created by potrace 1.14, written by Peter Selinger 2001-2017
</metadata>
<g transform="translate(0.000000,300.000000) scale(0.100000,-0.100000)"
fill="#000000" stroke="none">
<path d="M1562 2268 c-18 -18 -15 -46 6 -57 13 -7 23 -6 30 1 9 9 12 9 12 1 0
-23 -41 -42 -68 -32 -36 14 -53 -6 -19 -22 l27 -12 -25 -33 c-14 -18 -25 -37
-25 -43 0 -6 -11 -7 -27 -2 -64 16 -116 -22 -116 -86 0 -29 6 -42 34 -66 19
-16 29 -27 23 -24 -15 8 -138 -10 -193 -29 -118 -39 -240 -136 -312 -247 -36
-56 -79 -163 -79 -198 0 -26 -16 -32 -81 -30 -87 2 -143 -34 -155 -98 -4 -20
-15 -52 -25 -71 -21 -38 -25 -110 -9 -126 6 -6 13 -21 15 -34 2 -13 8 -27 12
-31 21 -19 92 -9 94 14 1 7 1 20 0 30 -3 29 14 19 36 -21 49 -86 150 -154 270
-182 29 -6 63 -20 76 -30 40 -32 140 -78 203 -94 78 -20 222 -21 299 -1 83 21
191 76 245 124 28 25 51 38 62 35 29 -9 57 -13 136 -20 135 -12 121 -17 174
68 61 98 79 158 58 196 -9 14 -26 29 -40 32 -15 4 -33 21 -46 44 -33 59 -51
71 -110 75 -7 1 -14 13 -17 29 -3 15 -10 50 -16 77 -5 28 -16 68 -24 90 l-14
39 41 27 c23 15 58 30 78 33 21 4 69 22 107 41 39 19 73 35 76 35 3 0 5 -43 5
-96 l0 -95 29 17 c24 14 36 36 62 108 58 164 73 190 129 226 81 52 111 102 70
115 -14 4 -27 -1 -43 -19 -13 -14 -27 -23 -30 -19 -4 3 3 14 15 24 25 22 22
23 -23 7 -29 -10 -175 -102 -189 -119 -16 -21 -196 -129 -213 -129 -11 0 -47
7 -79 16 -46 13 -62 14 -71 5 -9 -9 -2 -20 31 -49 l43 -38 -34 -16 c-34 -16
-35 -16 -45 7 -16 35 -125 147 -171 175 -43 26 -53 41 -23 33 26 -6 80 42 84
75 8 57 -43 110 -95 100 -33 -6 -58 32 -37 57 7 8 19 15 27 15 8 0 11 5 7 12
-4 7 -8 22 -9 34 0 12 -13 38 -28 58 -26 33 -38 41 -59 37 -5 0 -8 10 -8 24 0
14 -8 29 -19 35 -24 13 -24 13 -39 -2z m68 -135 c21 -36 16 -52 -17 -53 -17 0
-63 22 -63 30 0 7 49 60 55 60 2 0 13 -16 25 -37z m-65 -56 c16 -9 19 -19 15
-39 l-5 -28 -22 40 c-23 42 -21 47 12 27z m10 -119 c-17 -13 10 -43 36 -41 20
3 26 -4 35 -32 6 -19 11 -35 10 -35 -1 0 -30 9 -66 20 -36 11 -78 20 -95 20
l-30 1 27 16 c46 29 58 74 33 122 -26 51 -3 42 29 -12 21 -33 28 -55 21 -59z
m-102 93 c4 -1 -1 -9 -10 -19 -12 -13 -23 -16 -35 -11 -13 7 -16 4 -14 -15 2
-17 -1 -23 -10 -19 -8 3 -14 0 -14 -6 0 -6 3 -10 8 -10 4 1 14 1 22 0 12 -1
11 -5 -5 -17 -18 -13 -17 -14 13 -8 20 4 38 2 49 -7 14 -10 13 -8 -2 10 l-20
24 25 -13 c25 -13 25 -13 7 7 -17 19 -17 21 4 44 l21 24 -5 -23 c-3 -12 -1
-20 4 -16 5 3 9 0 9 -5 0 -6 -6 -11 -12 -11 -10 0 -10 -2 -1 -8 10 -6 9 -13
-3 -30 -8 -12 -19 -20 -24 -17 -5 3 -11 1 -15 -4 -14 -23 -71 7 -85 44 -13 35
34 97 69 90 9 -2 19 -4 24 -4z m174 -27 c1 -5 -5 -19 -15 -32 l-18 -23 2 28
c1 15 3 32 3 36 1 11 24 4 28 -9z m11 -61 c-28 -30 -33 -23 -13 18 13 24 19
29 26 18 5 -9 1 -21 -13 -36z m76 -4 c-3 -5 -10 -7 -15 -3 -5 3 -7 10 -3 15 3
5 10 7 15 3 5 -3 7 -10 3 -15z m46 1 c26 -26 25 -60 -1 -94 -17 -22 -26 -25
-56 -20 -39 6 -63 24 -63 47 0 17 15 17 47 -1 14 -8 20 -18 17 -30 -3 -9 2 -5
11 11 9 16 24 27 38 27 21 1 21 1 2 12 -28 15 -27 15 -30 43 -4 30 8 32 35 5z
m-89 -23 c-13 -13 -26 -3 -16 12 3 6 11 8 17 5 6 -4 6 -10 -1 -17z m799 -48
c0 -6 -4 -7 -10 -4 -5 3 -10 11 -10 16 0 6 5 7 10 4 6 -3 10 -11 10 -16z m-80
-49 c0 -5 -2 -10 -4 -10 -3 0 -8 5 -11 10 -3 6 -1 10 4 10 6 0 11 -4 11 -10z
m-35 -20 c3 -5 1 -10 -4 -10 -6 0 -11 5 -11 10 0 6 2 10 4 10 3 0 8 -4 11 -10z
m-1499 -755 c20 -39 11 -42 -31 -11 -41 32 -45 46 -9 42 16 -2 31 -13 40 -31z"/>
<path d="M1755 1951 c-3 -5 0 -13 6 -17 7 -4 9 -3 5 4 -3 5 0 13 6 15 9 4 10
6 1 6 -6 1 -14 -3 -18 -8z"/>
<path d="M1680 1880 c0 -5 5 -10 10 -10 6 0 10 5 10 10 0 6 -4 10 -10 10 -5 0
-10 -4 -10 -10z"/>
<path d="M1750 1881 c0 -6 4 -13 10 -16 6 -3 7 1 4 9 -7 18 -14 21 -14 7z"/>
<path d="M658 2063 c-16 -2 -28 -9 -28 -15 0 -6 10 -8 26 -4 15 4 23 3 20 -3
-3 -5 -24 -12 -45 -16 -73 -12 -75 -16 -72 -160 3 -145 13 -177 62 -194 l32
-11 -20 -23 c-12 -12 -28 -39 -37 -61 -19 -45 -19 -46 -6 -46 5 0 16 15 24 34
8 19 22 36 33 39 10 3 61 15 113 27 52 12 98 27 102 33 10 16 10 29 1 24 -5
-3 -24 -8 -43 -11 -19 -3 -61 -12 -92 -20 -66 -15 -80 -2 -15 14 23 6 49 13
57 15 8 2 31 7 50 10 35 6 65 22 91 47 29 28 111 80 159 100 50 21 50 21 44
57 -16 86 -16 85 -75 92 -67 8 -174 36 -212 56 -24 12 -37 13 -79 3 -27 -7
-52 -9 -55 -6 -4 3 -1 6 5 6 7 0 12 5 12 10 0 10 -3 10 -52 3z"/>
<path d="M2320 1887 c0 -19 16 -31 24 -18 3 5 -1 14 -9 21 -12 10 -15 10 -15
-3z"/>
<path d="M2287 1875 c-13 -10 -15 -14 -5 -18 7 -3 -24 -3 -70 0 -70 5 -86 3
-103 -13 -19 -17 -18 -18 33 -46 62 -34 78 -32 137 20 33 29 42 42 35 55 -8
13 -12 13 -27 2z"/>
<path d="M1053 1820 c-98 -49 -172 -123 -202 -203 -8 -21 -8 -27 2 -27 7 0 19
15 25 34 18 50 75 110 145 154 34 21 70 41 80 45 9 3 17 11 17 17 0 14 1 14
-67 -20z"/>
<path d="M2441 1741 c-12 -12 -21 -25 -21 -30 0 -5 -3 -17 -6 -25 -5 -12 -2
-15 12 -10 36 13 55 36 43 51 -7 7 -9 16 -5 20 3 3 6 1 6 -5 0 -7 7 -12 16
-12 9 0 14 6 12 13 -7 20 -36 19 -57 -2z"/>
<path d="M2084 1580 c-16 -6 -21 -18 -22 -49 -2 -38 0 -40 17 -29 19 12 44 75
33 82 -4 2 -16 0 -28 -4z"/>
</g>
</svg>
